<mxfile host="Electron" modified="2023-06-11T11:30:59.183Z" agent="Mozilla/5.0 (X11; Linux x86_64) AppleWebKit/537.36 (KHTML, like Gecko) draw.io/21.3.7 Chrome/112.0.5615.204 Electron/24.5.0 Safari/537.36" etag="CnHrlayUFu3w5qAGy6m7" version="21.3.7" type="device">
  <diagram name="Page-1" id="2rz2unj2kMR6K76uPGDG">
    <mxGraphModel dx="1114" dy="600" grid="1" gridSize="10" guides="1" tooltips="1" connect="1" arrows="1" fold="1" page="1" pageScale="1" pageWidth="850" pageHeight="1100" math="0" shadow="0">
      <root>
        <mxCell id="0" />
        <mxCell id="1" parent="0" />
        <mxCell id="BK5NS6DAnYncNPIuccfO-1" value="" style="shape=cube;whiteSpace=wrap;html=1;boundedLbl=1;backgroundOutline=1;darkOpacity=0.05;darkOpacity2=0.1;size=30;rotation=90;fillColor=#007FFF;strokeColor=default;fontColor=#000000;" vertex="1" parent="1">
          <mxGeometry x="30" y="343.12" width="170" height="55" as="geometry" />
        </mxCell>
        <mxCell id="BK5NS6DAnYncNPIuccfO-2" value="" style="shape=cube;whiteSpace=wrap;html=1;boundedLbl=1;backgroundOutline=1;darkOpacity=0.05;darkOpacity2=0.1;size=30;rotation=90;fillColor=#007FFF;" vertex="1" parent="1">
          <mxGeometry x="60" y="343.12" width="170" height="55" as="geometry" />
        </mxCell>
        <mxCell id="BK5NS6DAnYncNPIuccfO-3" value="" style="shape=cube;whiteSpace=wrap;html=1;boundedLbl=1;backgroundOutline=1;darkOpacity=0.05;darkOpacity2=0.1;size=30;rotation=90;fillColor=#3399FF;" vertex="1" parent="1">
          <mxGeometry x="117.5" y="335.62" width="140" height="70" as="geometry" />
        </mxCell>
        <mxCell id="BK5NS6DAnYncNPIuccfO-4" value="" style="shape=cube;whiteSpace=wrap;html=1;boundedLbl=1;backgroundOutline=1;darkOpacity=0.05;darkOpacity2=0.1;size=30;rotation=90;fillColor=#3399FF;" vertex="1" parent="1">
          <mxGeometry x="160" y="335.62" width="140" height="70" as="geometry" />
        </mxCell>
        <mxCell id="BK5NS6DAnYncNPIuccfO-5" value="" style="shape=cube;whiteSpace=wrap;html=1;boundedLbl=1;backgroundOutline=1;darkOpacity=0.05;darkOpacity2=0.1;size=30;rotation=90;fillColor=#99CCFF;" vertex="1" parent="1">
          <mxGeometry x="240" y="320" width="105" height="101.25" as="geometry" />
        </mxCell>
        <mxCell id="BK5NS6DAnYncNPIuccfO-7" value="" style="shape=cube;whiteSpace=wrap;html=1;boundedLbl=1;backgroundOutline=1;darkOpacity=0.05;darkOpacity2=0.1;size=30;rotation=90;fillColor=#99CCFF;" vertex="1" parent="1">
          <mxGeometry x="320" y="320" width="105" height="101.25" as="geometry" />
        </mxCell>
        <mxCell id="BK5NS6DAnYncNPIuccfO-12" value="" style="shape=cube;whiteSpace=wrap;html=1;boundedLbl=1;backgroundOutline=1;darkOpacity=0.05;darkOpacity2=0.1;size=10;rotation=90;fillColor=#FF6666;strokeColor=default;" vertex="1" parent="1">
          <mxGeometry x="487.5" y="250" width="170" height="20" as="geometry" />
        </mxCell>
        <mxCell id="BK5NS6DAnYncNPIuccfO-13" value="" style="shape=cube;whiteSpace=wrap;html=1;boundedLbl=1;backgroundOutline=1;darkOpacity=0.05;darkOpacity2=0.1;size=10;rotation=90;fillColor=#FFCCCC;" vertex="1" parent="1">
          <mxGeometry x="510" y="250" width="170" height="20" as="geometry" />
        </mxCell>
        <mxCell id="BK5NS6DAnYncNPIuccfO-14" value="" style="shape=cube;whiteSpace=wrap;html=1;boundedLbl=1;backgroundOutline=1;darkOpacity=0.05;darkOpacity2=0.1;size=10;rotation=90;fillColor=#33FF33;" vertex="1" parent="1">
          <mxGeometry x="487.5" y="450" width="170" height="20" as="geometry" />
        </mxCell>
        <mxCell id="BK5NS6DAnYncNPIuccfO-15" value="" style="shape=cube;whiteSpace=wrap;html=1;boundedLbl=1;backgroundOutline=1;darkOpacity=0.05;darkOpacity2=0.1;size=10;rotation=90;fillColor=#CCFFCC;" vertex="1" parent="1">
          <mxGeometry x="510" y="450" width="170" height="20" as="geometry" />
        </mxCell>
        <mxCell id="BK5NS6DAnYncNPIuccfO-17" value="" style="shape=flexArrow;endArrow=classic;html=1;rounded=0;strokeWidth=3;strokeColor=#808080;" edge="1" parent="1">
          <mxGeometry width="50" height="50" relative="1" as="geometry">
            <mxPoint x="440" y="300" as="sourcePoint" />
            <mxPoint x="520" y="260" as="targetPoint" />
          </mxGeometry>
        </mxCell>
        <mxCell id="BK5NS6DAnYncNPIuccfO-19" value="" style="shape=flexArrow;endArrow=classic;html=1;rounded=0;strokeWidth=3;fillColor=none;strokeColor=#999999;" edge="1" parent="1">
          <mxGeometry width="50" height="50" relative="1" as="geometry">
            <mxPoint x="440" y="418.12" as="sourcePoint" />
            <mxPoint x="520" y="458.12" as="targetPoint" />
          </mxGeometry>
        </mxCell>
        <mxCell id="BK5NS6DAnYncNPIuccfO-21" value="&lt;font face=&quot;Times New Roman&quot; style=&quot;font-size: 26px;&quot;&gt;Shared Convolutional Encoder&lt;/font&gt;" style="text;html=1;strokeColor=none;fillColor=none;align=center;verticalAlign=middle;whiteSpace=wrap;rounded=0;strokeWidth=4;" vertex="1" parent="1">
          <mxGeometry x="95" y="480" width="330" height="30" as="geometry" />
        </mxCell>
        <mxCell id="BK5NS6DAnYncNPIuccfO-22" value="&lt;font face=&quot;Times New Roman&quot; style=&quot;font-size: 26px;&quot;&gt;Pretext Task&lt;br&gt;Linear Decoder&lt;br&gt;&lt;/font&gt;" style="text;html=1;strokeColor=none;fillColor=none;align=center;verticalAlign=middle;whiteSpace=wrap;rounded=0;strokeWidth=4;" vertex="1" parent="1">
          <mxGeometry x="630" y="225" width="190" height="70" as="geometry" />
        </mxCell>
        <mxCell id="BK5NS6DAnYncNPIuccfO-23" value="&lt;font face=&quot;Times New Roman&quot; style=&quot;font-size: 26px;&quot;&gt;Target Task&lt;br&gt;Linear Decoder&lt;br&gt;&lt;/font&gt;" style="text;html=1;strokeColor=none;fillColor=none;align=center;verticalAlign=middle;whiteSpace=wrap;rounded=0;strokeWidth=4;" vertex="1" parent="1">
          <mxGeometry x="630" y="425" width="190" height="70" as="geometry" />
        </mxCell>
      </root>
    </mxGraphModel>
  </diagram>
</mxfile>
